<svg id="Capa_1" data-name="Capa 1" xmlns="http://www.w3.org/2000/svg" viewBox="0 0 838 213.76" fill= "white">
    <path
        d="M230.05,118.27a4.78,4.78,0,0,1-3.76-7.48c1.05-1.53,2.05-3,3-4.48,2.31-3.53,4.5-7.15,7.24-11.52.58,6.92.68,11.51,1.2,17.75l56.94.2L289.55.09H230.08L103.68,213.76h61.07c7.65-12.84,17.06-28.67,24.6-41.61a4.72,4.72,0,0,1,4.09-2.36H241.1c.81,14.42,1.61,29.57,2.42,44h56.84l-5.24-95C273.61,118.52,252.21,119,230.05,118.27Z" />
    <path
        d="M146.09,89.64c-6.28-2.43-26.82-9.26-37-12.64a8.29,8.29,0,0,1-5.52-9.62c1.21-5.37,4.92-11.57,15.64-11.51l66.29.08S218.51.05,218.51.09H103.77S73.74-3.32,61,32.81l-17.77,47a41.12,41.12,0,0,0-.07,21.93c1.91,7.48,7,12.62,12.63,17.27,13,10.65,30.55,11,45.76,16.44a4.71,4.71,0,0,1,1.77,1.06,2.8,2.8,0,0,1,.49,3.54c-.88,1.74-1.73,3.49-2.59,5.24a24.32,24.32,0,0,1-22.3,13.53h-.16c-16.92-.75-31.39-7.46-46.46-14.94-4.24,8.54-7.85,17.53-11.92,26.17C14.21,183.46,6.24,200.43,0,213.76H92l60.35-102C157.56,102.83,154.86,93,146.09,89.64Z" />
    <path
        d="M769,61.62l0,33.43c-2.52-4.58-5.18-9.5-7.09-13-3.36-6.1-6.65-12.24-10.15-18.26a5,5,0,0,0-3.22-2.21l-8.64-.1.08,53.38h10.83l-.24-32.74C753.6,87.44,758,94.94,761,100.27c2.28,4.08,4.32,8.31,6.7,12.34a4.77,4.77,0,0,0,3.16,2.18s6.12,0,9-.07l-.11-53.1Z" />
    <path
        d="M372.13,83.9c-4.58-1.5-9.31-2.53-14-3.81a4.32,4.32,0,0,1-3.56-4c-.15-1.89,1.81-4.09,4.1-4.84,0,0,9.05-4.29,12.82,7.23l11.4-1.71c.26-6.56-2.35-11.39-8-14.19a27.68,27.68,0,0,0-23.6-1.08A15.81,15.81,0,0,0,342.27,71C339.49,78.45,342,90.15,355,91.88a29,29,0,0,1,6.39,1.71c2.21.83,4.82,1.13,6.85,2.26a3.87,3.87,0,0,1,.74,6.22c-5.19,4.69-12.16,2.63-16.92-5.69l-10.88,1.16c-1.19,8,2.71,13.95,10.9,16.59a34.1,34.1,0,0,0,20.44.1c8.56-2.48,13.46-10.67,10.74-20.48C381.67,88.07,377.17,85.56,372.13,83.9Z" />
    <path
        d="M657.25,97.06l9-.06,6.69,14.57c.85,1.78,1.93,3.35,4.24,3.32,3.25,0,6.5,0,10.63,0L677.86,95c1.52-1.45,2.87-2.55,4-3.85,5.16-5.86,5.58-12.7,3.3-19.75a14.45,14.45,0,0,0-12.52-10.19H648.19c-2.09,0-3.19,1.13-3.26,3.26l-.11,50.43h12.43Zm-.17-24.29,12.67-.16a7.3,7.3,0,0,1,4.33,5.68c.16,3.63-1.25,6.06-4.18,7.09H657.08Z" />
    <path
        d="M569.55,95.72c.37-6-.16-11.91-.32-17.85-.17-6.44-5.62-12.54-11.68-14.73-7.1-2.57-14.35-1.92-21.6-1.86s-7.47.18-7.48,7.8v45.81l23.78-.17C561.27,113.69,568.79,107.91,569.55,95.72Zm-12.13-1.36c-.54,6-4.48,9.16-10.43,9-1.73-.06-3.46,0-5.66,0V71.76c1.79-.08,3.49-.28,5.19-.22,7.12.24,10.39,3.31,10.83,10.43A82.67,82.67,0,0,1,557.42,94.36Z" />
    <path
        d="M419.52,61.46l-28.82,0v53.38h13.46V98.34c5.47-.46,10.31-.58,15.06-1.32,6.66-1,11.59-4.6,13.29-11.41a34,34,0,0,0,.92-8.65C433.28,68.79,427.69,62.28,419.52,61.46Zm-5.2,25.14c-3.06.28-6.17.06-9.88.06V72.14c3.4-.08,6.62-.37,9.82-.18S420,75.67,420,79.34C420,83.69,418.17,86.26,414.32,86.6Z" />
    <path
        d="M639.41,114.89l-16.95-53.7-15.25,0c-5.86,17.92-11.59,35.47-17.53,53.65l12.64,0c1.26-3.31,2.45-6.44,3.73-9.78h17.56c1.09,3.41,2.1,6.57,3.12,9.78ZM609.23,94.23l5.65-19.49,5.7,19.49Z" />
    <path
        d="M476,105.09l-23.71-.35V93.18h20.34V83.29H452.46l.12-11L476,71.9V61.51c-11.86,0-35.57,0-35.57,0v53.42H476Z" />
    <path
        d="M565.36,148.63l-6.31-13.74h-5.4v24.18l4.57,0V143.53L562.68,154l5.3,0,5.19-10.43V159h4.28V135l-5.2,0Z" />
    <path
        d="M423,134.16c-4.22,0-9.22,1-9.22,8v8.94c0,7.94,9.15,7.78,9.15,7.78s9.44.75,9.3-8V141C432.24,135.53,427.23,134.16,423,134.16Zm4.18,17.54c-.18,1.72-1.83,2.67-3.73,2.75-2.06.09-4.1-.68-4.67-2.65v-9.3a3.91,3.91,0,0,1,4-3.7c2.21-.14,4.23.83,4.46,3.07Z" />
    <path
        d="M476.79,139.57c2.77,0,4.41-.38,5.37,2.76l4-.08c-1-4.69-3.63-6.8-8.27-7.21h-.12a9.79,9.79,0,0,0-10.29,9.33,35.05,35.05,0,0,0,0,4.91c.42,5.73,2.31,9.63,9.28,9.63,0,0,9.29.38,9.29-7.69-.11,0-4.24,0-4.24,0-1.06,4.22-4.12,3.72-6.34,3.43-2.69-.35-3.59-2.72-4.07-4.87a13.23,13.23,0,0,1-.15-5C471.72,142.38,474,139.57,476.79,139.57Z" />
    <path d="M435.48,135V139h7v20h4.79V139h7V135Z" />
    <path d="M458.15,135l-.14,23.9h4.92c0-7,0-17.2,0-23.9Z" />
    <path
        d="M521.05,105.09l-23.71-.35V93.18h20.33V83.29H497.46l.12-11,23.47-.37V61.51c-11.86,0-35.57,0-35.57,0v53.42h35.57Z" />
    <path
        d="M729.4,105.09l-23.71-.35V93.18H726V83.29H705.82l.12-11,23.46-.37V61.51c-11.86,0-35.57,0-35.57,0v53.42H729.4Z" />
    <path
        d="M821.13,61.19l-15.25,0c-5.86,17.92-11.59,35.47-17.53,53.65l12.63,0c1.27-3.31,2.46-6.44,3.74-9.78h17.56c1.08,3.41,2.09,6.57,3.12,9.78h12.68Zm-13.23,33,5.65-19.49,5.7,19.49Z" />
    <path
        d="M404.26,134.21v15.6c-1.17-2.14-2.41-4.44-3.3-6.05-1.57-2.85-3.11-5.72-4.74-8.52a2.29,2.29,0,0,0-1.5-1l-4-.05,0,24.91h5.06l-.12-15.28c1.43,2.47,3.47,6,4.86,8.45,1.07,1.91,2,3.88,3.13,5.76a2.27,2.27,0,0,0,1.47,1s2.86,0,4.23,0l-.05-24.77Z" />
    <path d="M490.49,135l-.14,23.9h4.92c0-7,0-17.2,0-23.9Z" />
    <path
        d="M506.89,135l-7.85,24,5.66,0,1.67-4.39h7.87c.48,1.53.94,2.95,1.4,4.39h5.68L513.72,135Zm.9,14.79,2.54-8.73,2.55,8.73Z" />
    <path
        d="M536.49,145.52c-2-.65-4-1.1-6-1.65a1.87,1.87,0,0,1-1.54-1.72,2.43,2.43,0,0,1,1.77-2.1s3.91-1.86,5.54,3.14l4.92-.75a6.08,6.08,0,0,0-3.44-6.15,11.93,11.93,0,0,0-10.19-.47,6.86,6.86,0,0,0-3.93,4.1c-1.2,3.24-.12,8.31,5.5,9.06a12.83,12.83,0,0,1,2.76.75,21.7,21.7,0,0,1,2.95,1,1.68,1.68,0,0,1,.32,2.7c-2.24,2-5.25,1.14-7.3-2.47l-4.7.5c-.52,3.46,1.17,6.05,4.7,7.2a14.7,14.7,0,0,0,8.83,0c3.7-1.08,5.82-4.63,4.64-8.89C540.61,147.33,538.67,146.24,536.49,145.52Z" />
    <path
        d="M591.77,134.16c-4.21,0-9.22,1-9.22,8v8.94c0,7.94,9.15,7.78,9.15,7.78s9.44.75,9.3-8V141C601,135.53,596,134.16,591.77,134.16ZM596,151.7c-.18,1.72-1.84,2.67-3.73,2.75-2.06.09-4.1-.68-4.67-2.65v-9.3a3.91,3.91,0,0,1,4-3.7c2.21-.14,4.23.83,4.46,3.07Z" />
    <path d="M603.72,135V139h7v20h4.8V139h7V135Z" />
    <path
        d="M635.11,134.16c-4.22,0-9.22,1-9.22,8v8.94c0,7.94,9.15,7.78,9.15,7.78s9.44.75,9.3-8V141C644.33,135.53,639.32,134.16,635.11,134.16Zm4.18,17.54c-.18,1.72-1.83,2.67-3.73,2.75-2.06.09-4.1-.68-4.67-2.65v-9.3a3.91,3.91,0,0,1,4-3.7c2.21-.14,4.23.83,4.46,3.07Z" />
    <path
        d="M665.88,148.33c2.3-2.61,2.48-5.65,1.47-8.79a6.44,6.44,0,0,0-5.57-4.54H650.89a1.32,1.32,0,0,0-1.46,1.45l0,22.45h5.53V151l4,0,3,6.48c.38.8.86,1.49,1.89,1.48h4.73l-4.42-8.86C664.77,149.4,665.37,148.91,665.88,148.33Zm-5.33-2.56h-5.71v-5.61l5.64-.07a3.21,3.21,0,0,1,1.93,2.52A2.86,2.86,0,0,1,660.55,145.77Z" />
    <path
        d="M686,145.58c-2-.64-4-1.09-6-1.64a1.86,1.86,0,0,1-1.53-1.71,2.41,2.41,0,0,1,1.77-2.09s3.9-1.85,5.53,3.12l4.93-.74a6.05,6.05,0,0,0-3.44-6.13,12,12,0,0,0-10.2-.46,6.81,6.81,0,0,0-3.92,4.08c-1.2,3.22-.12,8.27,5.49,9a12.5,12.5,0,0,1,2.76.74,21.39,21.39,0,0,1,3,1,1.66,1.66,0,0,1,.32,2.68c-2.24,2-5.25,1.14-7.3-2.46l-4.7.51c-.52,3.44,1.17,6,4.7,7.16a14.7,14.7,0,0,0,8.83,0c3.7-1.07,5.82-4.6,4.64-8.84C690.13,147.38,688.19,146.3,686,145.58Z" />
    <path
        d="M707.51,135.22H696.62a1.32,1.32,0,0,0-1.45,1.45l0,22.46h5.53v-8.41l7.12-.1a6.56,6.56,0,0,0,3.83-2.06h0c2.29-2.61,2.48-5.66,1.46-8.8A6.41,6.41,0,0,0,707.51,135.22ZM706.28,146h-5.7v-5.61l5.64-.07a3.24,3.24,0,0,1,1.92,2.53A2.82,2.82,0,0,1,706.28,146Z" />
    <path
        d="M726.77,134.16c-4.22,0-9.22,1-9.22,8v8.94c0,7.94,9.15,7.78,9.15,7.78s9.44.75,9.3-8V141C736,135.53,731,134.16,726.77,134.16ZM731,151.7c-.18,1.72-1.83,2.67-3.73,2.75-2.06.09-4.1-.68-4.67-2.65v-9.3a3.92,3.92,0,0,1,4-3.7c2.2-.14,4.22.83,4.45,3.07Z" />
    <path
        d="M757,148.33c2.3-2.61,2.48-5.65,1.47-8.79a6.44,6.44,0,0,0-5.57-4.54H742a1.32,1.32,0,0,0-1.46,1.45l0,22.45H746V151l4,0,3,6.48c.38.8.86,1.49,1.89,1.48h4.73l-4.42-8.86C755.86,149.4,756.46,148.91,757,148.33Zm-5.33-2.56h-5.71v-5.61l5.64-.07a3.21,3.21,0,0,1,1.93,2.52A2.86,2.86,0,0,1,751.64,145.77Z" />
    <path d="M761.07,135V139h7v20h4.8V139h7V135Z" />
</svg>